# xmcd
#
# Track frame offsets:
#	150
#	20244
#	38846
#	55162
#	72884
#	96821
#	116706
#	135396
#	156074
#	173100
#	191790
#	206522
#	227657
#	251648
#	269469
#	291668
#
# Disc length: 4167 seconds
#
# Revision: 1
# Processed by: cddbd v1.5.2PL0 Copyright (c) Steve Scherf et al.
# Submitted via: audiograbber 1.83.01
#
DISCID=ef104510
DTITLE=Various Artist - Baila Merengue
DYEAR=2004
DGENRE=Merengue
TTITLE0=Salvaje - Mesa que mas aplauda
TTITLE1=Candela All Stars - Cariñito
TTITLE2=Rana - Pirulino
TTITLE3=Salvaje - Si eso fuera mio
TTITLE4=Hielo Seco - Yo como que te he visto
TTITLE5=Grupo Merenguismo - El baile del ki ki ki
TTITLE6=Hielo Seco - Mi reina
TTITLE7=Salvaje - Marinerito marineron
TTITLE8=Hielo Seco - No me digas que no
TTITLE9=Salvaje - Dime si tu estas bien
TTITLE10=Grupo Merenguismo - Mi PC
TTITLE11=Zona Rika - La reina de la pista
TTITLE12=Klamato - El biper
TTITLE13=Grupo Merenguismo - La candelosa
TTITLE14=Grupo Merenguismo - A lo loco
TTITLE15=Grupo Merenguismo - Alegria
EXTD=
EXTT0=
EXTT1=
EXTT2=
EXTT3=
EXTT4=
EXTT5=
EXTT6=
EXTT7=
EXTT8=
EXTT9=
EXTT10=
EXTT11=
EXTT12=
EXTT13=
EXTT14=
EXTT15=
PLAYORDER=
